// This is a placeholder for the profile image
// In a real implementation, you would place the actual image file here

<?xml version="1.0" standalone="no"?>
<!DOCTYPE svg PUBLIC "-//W3C//DTD SVG 20010904//EN"
 "http://www.w3.org/TR/2001/REC-SVG-20010904/DTD/svg10.dtd">
<svg version="1.0" xmlns="http://www.w3.org/2000/svg"
 width="433.000000pt" height="576.000000pt" viewBox="0 0 433.000000 576.000000"
 preserveAspectRatio="xMidYMid meet">

<g transform="translate(0.000000,576.000000) scale(0.100000,-0.100000)"
fill="#000000" stroke="none">
<path d="M2544 5159 c-6 -10 72 -49 97 -49 9 0 19 7 23 15 8 21 23 19 29 -4 5
-22 -17 -47 -48 -53 -16 -4 -13 -8 18 -21 44 -19 45 -43 1 -40 -24 2 -26 1 -9
-6 11 -5 29 -12 40 -16 19 -6 19 -7 3 -19 -22 -16 -23 -26 -3 -26 8 0 15 -4
15 -10 0 -5 7 -10 15 -10 8 0 15 -4 15 -10 0 -18 -58 -11 -69 8 -8 14 -12 15
-22 5 -10 -10 -10 -13 -1 -13 14 0 16 -26 2 -35 -5 -3 -27 3 -49 15 -49 25
-80 26 -88 3 -4 -10 -14 -23 -22 -30 -14 -11 -14 -12 0 -13 21 0 79 -50 79
-67 0 -16 -61 -13 -78 4 -15 14 -60 28 -68 21 -11 -12 10 -34 48 -53 l42 -20
-29 -5 c-40 -7 -34 -23 11 -33 52 -10 52 -14 5 -27 -24 -6 -39 -15 -35 -21 3
-6 -3 -13 -15 -16 -11 -3 -18 -9 -15 -14 5 -9 -8 -13 -104 -29 -34 -6 -67 -8
-72 -5 -5 3 -19 1 -30 -5 -18 -9 -25 -8 -39 9 -10 12 -27 21 -37 21 -12 0 -15
3 -8 8 15 10 14 40 -3 46 -22 9 24 76 53 76 22 0 82 -28 112 -53 10 -8 16 -7
22 3 6 10 4 17 -5 23 -24 13 -18 36 8 30 21 -4 21 -4 3 11 -10 8 -23 17 -29
19 -15 5 2 67 19 67 16 0 18 18 4 40 -6 10 -10 11 -10 3 0 -7 -8 -13 -18 -13
-22 0 -72 -22 -72 -32 0 -5 -5 -8 -11 -8 -5 0 -7 5 -4 10 3 6 0 10 -9 10 -8 0
-16 -5 -18 -11 -2 -6 -14 -8 -31 -4 -33 9 -27 24 8 17 14 -2 25 0 25 6 0 5 20
16 45 23 38 11 44 16 39 34 -10 31 -20 38 -42 26 -14 -7 -23 -8 -27 -1 -3 5
-1 10 4 10 22 0 10 20 -11 21 l-23 0 23 9 c26 11 29 25 5 34 -9 4 -25 -1 -37
-13 -24 -22 -87 -61 -99 -61 -15 0 18 39 38 44 11 3 -2 3 -28 2 -39 -3 -56
-10 -82 -36 -33 -32 -33 -33 -17 -58 10 -15 11 -23 5 -19 -9 6 -13 2 -13 -12
0 -13 -15 -30 -42 -48 -46 -28 -72 -56 -58 -61 5 -2 -1 -13 -14 -25 -22 -22
-64 -132 -54 -142 3 -3 20 6 37 21 18 15 28 30 22 33 -15 10 10 53 38 68 14 6
28 19 33 27 5 9 16 16 23 16 8 0 15 9 15 20 0 11 5 20 10 20 6 0 10 -9 10 -20
0 -11 -4 -20 -8 -20 -9 0 -32 -44 -32 -61 0 -6 5 -7 10 -4 6 3 10 2 10 -3 0
-16 -31 -23 -46 -11 -11 9 -14 7 -14 -11 0 -21 -53 -84 -74 -86 -6 0 -19 -2
-28 -2 -11 -1 -18 -10 -18 -23 0 -15 4 -19 16 -15 8 3 22 -1 30 -9 14 -13 12
-15 -17 -15 -26 0 -30 -3 -21 -12 15 -15 15 -28 1 -28 -5 0 -7 5 -4 10 3 6 1
10 -6 10 -22 0 -3 -131 31 -217 36 -88 62 -143 71 -149 4 -2 6 11 5 29 -1 28
2 32 28 35 16 2 38 15 49 28 22 29 34 25 17 -5 -7 -13 -7 -21 -1 -21 17 0 33
39 26 61 l-7 21 -15 -21 c-8 -12 -21 -21 -29 -21 -8 0 -14 -5 -14 -10 0 -6 -8
-5 -19 2 -24 15 -18 28 12 28 12 0 28 9 35 21 10 15 20 19 38 15 13 -4 24 -2
24 3 0 5 9 12 19 16 11 3 22 19 26 36 4 17 14 33 23 36 10 3 26 13 36 22 11 9
16 10 12 4 -4 -7 -2 -13 3 -13 6 0 11 -7 11 -16 0 -8 -4 -13 -8 -10 -4 3 -13
-8 -19 -25 -11 -29 -11 -29 25 -30 21 0 46 -4 57 -8 11 -5 25 -4 32 1 7 6 22
4 40 -6 25 -13 36 -13 93 0 74 18 104 13 126 -20 14 -23 14 -26 -5 -45 -12
-12 -25 -21 -30 -21 -5 0 -20 -19 -33 -42 -15 -28 -31 -44 -46 -46 -14 -2 -24
-13 -29 -30 -3 -15 -15 -40 -25 -57 -17 -29 -24 -65 -12 -65 3 0 14 5 25 11
16 8 25 7 40 -7 10 -9 19 -22 19 -29 0 -6 18 -30 40 -53 22 -22 40 -45 40 -51
0 -6 14 -20 30 -33 29 -21 41 -58 20 -58 -5 0 -10 -10 -10 -22 0 -17 -3 -19
-12 -10 -7 7 -27 12 -46 12 -19 0 -31 4 -27 10 3 6 -1 10 -9 10 -15 0 -46 -47
-46 -70 0 -5 9 -10 20 -10 48 0 10 -38 -47 -47 -39 -6 -83 -37 -83 -59 0 -14
-36 -39 -71 -47 -14 -4 -37 -17 -51 -31 -23 -21 -26 -29 -21 -67 7 -52 13 -57
61 -54 60 4 61 4 57 26 -4 18 -1 20 21 15 16 -4 30 -1 40 9 21 21 114 21 114
0 0 -8 11 -17 25 -21 40 -10 29 -21 -35 -33 -64 -13 -74 -26 -42 -59 9 -11 27
-37 39 -59 25 -45 22 -50 -34 -72 -23 -9 -37 -10 -51 -2 -12 6 -29 11 -39 11
-11 0 -37 16 -58 36 -22 20 -41 31 -43 25 -2 -6 -10 -11 -18 -11 -18 0 -84 65
-84 83 0 8 -20 36 -45 63 -25 26 -45 52 -45 57 0 6 -3 8 -6 5 -14 -15 106
-209 163 -265 24 -23 43 -45 43 -50 0 -4 20 -30 45 -58 25 -27 45 -55 45 -62
0 -7 7 -13 16 -13 8 0 13 -4 10 -9 -8 -13 58 -20 66 -7 5 8 8 7 8 -2 0 -9 10
-13 28 -11 25 2 83 -6 125 -18 12 -3 16 -10 12 -21 -3 -8 -1 -18 5 -22 8 -5 7
-20 -4 -50 -14 -40 -13 -44 7 -72 23 -31 32 -93 16 -104 -28 -17 -109 38 -109
74 0 11 -7 22 -15 26 -8 3 -15 13 -15 22 0 11 5 14 16 10 12 -4 10 1 -5 23
-12 16 -18 36 -15 45 4 12 2 15 -9 10 -9 -3 -21 3 -30 16 -8 12 -18 17 -21 11
-4 -5 -1 -13 5 -16 7 -5 2 -12 -13 -19 -18 -10 -27 -10 -45 2 -13 8 -23 20
-23 28 0 7 -14 21 -30 29 -17 9 -28 20 -25 25 6 9 -2 12 -21 9 -13 -2 -23 26
-30 78 l-6 53 -22 -32 c-18 -27 -35 -36 -136 -65 -63 -18 -124 -33 -134 -33
-41 0 -86 -24 -86 -45 -1 -26 -23 -55 -44 -55 -20 0 -21 -9 0 -25 33 -24 24
-123 -22 -252 -14 -37 -23 -46 -84 -76 -68 -33 -69 -33 -78 -13 -6 12 -13 60
-15 108 -5 94 -44 204 -69 195 -7 -2 -12 -9 -11 -15 1 -5 -7 -18 -17 -27 -11
-10 -20 -25 -20 -34 0 -9 -14 -29 -30 -45 -17 -16 -30 -40 -30 -53 0 -13 -6
-23 -14 -23 -7 0 -22 -12 -32 -26 -10 -15 -29 -38 -41 -53 -18 -21 -22 -23
-23 -8 0 27 -39 21 -50 -8 -5 -14 -12 -25 -14 -25 -14 0 -56 25 -56 33 0 14
-43 57 -57 57 -7 0 -13 -7 -13 -15 0 -8 -14 -22 -31 -31 -31 -15 -31 -17 -26
-68 6 -64 -5 -89 -24 -57 -16 25 -25 26 -45 6 -9 -8 -12 -15 -8 -15 4 0 1 -8
-8 -17 -23 -28 -35 -63 -53 -154 -9 -46 -23 -101 -30 -121 -21 -55 -84 -274
-100 -348 -8 -36 -30 -135 -50 -220 -43 -185 -53 -233 -70 -325 -26 -137 -64
-301 -79 -344 -9 -24 -14 -46 -12 -50 3 -4 -2 -39 -9 -79 -8 -40 -12 -79 -9
-86 3 -8 -2 -31 -11 -52 -14 -33 -15 -126 -3 -172 1 -4 -1 -30 -5 -59 -6 -40
-3 -63 14 -108 23 -62 28 -141 15 -217 l-9 -48 330 0 329 0 12 34 c13 35 6
172 -9 182 -13 8 50 179 92 248 10 17 19 41 19 54 0 12 4 22 9 22 10 0 14 -15
31 -115 6 -38 18 -103 26 -143 14 -65 14 -80 1 -145 -9 -40 -18 -87 -21 -104
l-5 -33 619 0 620 0 0 42 c0 23 -6 49 -13 57 -24 28 -50 136 -42 173 3 18 10
107 14 198 5 91 16 202 25 248 10 45 15 96 11 111 -3 16 1 57 10 90 22 85 47
517 35 596 -5 33 -11 107 -13 165 -3 93 -7 113 -35 170 -17 36 -37 80 -44 98
-7 17 -16 32 -20 32 -18 0 -82 107 -94 157 -7 30 -19 62 -27 71 -16 18 -45
115 -44 145 0 21 4 21 127 -12 147 -39 436 -45 528 -11 18 7 44 9 57 6 14 -4
25 -2 25 3 0 5 7 11 15 14 17 7 14 -17 -15 -128 -10 -38 -26 -108 -35 -155 -9
-47 -27 -141 -41 -210 -41 -206 -61 -328 -78 -470 -31 -262 -39 -368 -45 -643
-5 -231 -9 -279 -21 -287 -11 -7 -12 -14 -4 -27 14 -24 11 -126 -4 -131 -17
-5 -15 -36 5 -70 17 -30 17 -32 -9 -89 -15 -32 -30 -69 -34 -81 -5 -20 -10
-23 -32 -17 -88 21 -88 21 -72 -19 l10 -26 512 0 513 0 38 173 c20 94 43 195
49 222 16 63 12 402 -6 573 -6 68 -9 125 -5 128 5 2 14 -17 22 -44 8 -26 37
-82 65 -124 33 -52 52 -92 57 -125 11 -72 48 -137 100 -173 25 -17 45 -34 45
-39 0 -4 -16 -23 -36 -42 l-36 -34 7 -87 c6 -71 4 -90 -8 -103 -16 -15 -13
-49 6 -73 7 -8 5 -18 -7 -30 -23 -26 -20 -47 9 -69 l25 -18 -19 -40 c-12 -25
-18 -51 -14 -68 l5 -27 134 0 134 0 0 1188 0 1187 -57 51 c-32 28 -83 73 -113
99 -63 56 -207 127 -361 179 -160 54 -191 65 -238 87 -24 11 -73 32 -110 45
-126 49 -176 69 -189 77 -7 5 -25 34 -41 66 -16 31 -57 86 -91 121 l-62 64 7
105 c5 95 31 305 41 339 3 11 8 10 26 -2 32 -23 71 -20 95 7 20 21 53 108 88
232 35 123 -14 265 -91 265 -26 0 -26 0 -19 63 4 34 11 80 17 102 6 22 12 78
14 125 2 46 6 92 9 101 6 17 -6 52 -26 80 -10 13 -7 22 9 45 12 16 24 52 28
81 6 46 4 52 -15 63 -17 9 -26 9 -36 0 -12 -10 -17 -7 -25 14 -5 15 -16 29
-24 32 -8 3 -22 21 -31 40 -13 27 -22 34 -45 34 -20 0 -30 5 -30 15 0 9 -9 15
-24 15 -26 0 -56 23 -56 44 0 22 -64 75 -110 91 -24 8 -51 22 -60 29 -8 8 -40
28 -71 45 -43 24 -70 32 -123 35 -36 2 -69 -1 -72 -5z m161 -109 c3 -5 2 -10
-4 -10 -5 0 -13 5 -16 10 -3 6 -2 10 4 10 5 0 13 -4 16 -10z m-563 -130 c-12
-11 -25 -20 -31 -20 -5 0 -7 9 -4 20 4 13 14 20 31 20 l26 0 -22 -20z m-49
-26 c14 -14 -7 -34 -37 -34 l-31 0 25 20 c27 21 33 23 43 14z m526 -33 c8 -5
9 -11 3 -15 -5 -3 -15 1 -22 9 -14 16 -3 20 19 6z m92 -10 c4 -3 5 -21 2 -38
-6 -35 -33 -46 -33 -14 0 11 -4 22 -9 26 -6 3 -9 14 -8 25 1 15 6 19 22 14 11
-3 23 -9 26 -13z m-637 -126 c-4 -8 -16 -15 -28 -15 -21 1 -21 1 -2 15 25 19
37 19 30 0z m83 -141 c-3 -3 -12 -4 -19 -1 -8 3 -5 6 6 6 11 1 17 -2 13 -5z
m453 -202 c0 -5 -6 -16 -13 -27 -10 -13 -16 -15 -21 -6 -4 6 -2 18 4 26 13 16
30 20 30 7z m310 -197 c0 -9 -6 -12 -15 -9 -8 4 -15 10 -15 15 0 5 7 9 15 9 8
0 15 -7 15 -15z m-255 -125 c3 -5 1 -10 -5 -10 -7 0 -10 -7 -6 -15 4 -11 -2
-15 -28 -15 -42 0 -50 9 -29 32 17 19 58 24 68 8z m362 -79 c7 -9 13 -32 13
-52 0 -29 -7 -42 -32 -63 -17 -14 -37 -26 -44 -26 -7 0 -22 -14 -34 -30 -26
-37 -74 -63 -101 -55 -10 4 -17 10 -14 15 3 5 1 11 -5 15 -16 10 25 81 65 112
20 15 47 47 60 69 21 36 28 41 52 36 15 -3 33 -12 40 -21z m-597 -491 c0 -13
-11 -13 -30 0 -12 8 -11 10 8 10 12 0 22 -4 22 -10z m-910 -749 c0 -5 -7 -11
-15 -15 -15 -5 -20 5 -8 17 9 10 23 9 23 -2z m15 -134 c-3 -7 -15 -17 -27 -22
-12 -6 -24 -17 -28 -25 -18 -41 -27 -54 -39 -58 -10 -3 -11 2 -5 19 4 13 8 45
9 71 0 26 6 53 13 60 6 6 12 19 12 28 0 9 3 20 6 23 10 9 64 -80 59 -96z
m2115 78 c0 -8 -7 -15 -15 -15 -13 0 -14 3 -3 15 16 18 18 18 18 0z m70 -5
l23 -20 -30 0 c-22 0 -32 6 -36 20 -3 12 0 20 7 20 7 0 23 -9 36 -20z m-197
-173 c15 -23 43 -64 62 -91 26 -38 32 -53 23 -63 -8 -10 -7 -13 5 -13 9 0 21
-9 27 -21 10 -18 7 -25 -20 -49 -44 -39 -114 -55 -182 -41 -45 10 -61 9 -93
-5 -37 -15 -40 -15 -52 3 -8 10 -11 28 -8 40 3 12 1 25 -5 28 -23 14 0 183 25
188 6 1 14 -19 18 -45 5 -27 13 -48 17 -48 4 0 6 -13 4 -30 -2 -16 1 -32 6
-35 5 -3 7 -12 3 -20 -3 -10 1 -15 14 -15 10 0 24 -5 31 -12 9 -9 12 -8 12 4
0 9 -8 18 -17 20 -13 2 -17 14 -18 51 0 27 4 46 9 44 6 -2 25 10 43 26 27 25
33 38 33 72 0 70 22 74 63 12z m-164 -378 c1 -40 -2 -47 -24 -57 -14 -7 -33
-12 -42 -12 -9 0 -13 -6 -10 -15 6 -15 -36 -55 -59 -55 -14 0 -34 30 -34 50 0
7 7 9 18 5 13 -5 14 -3 6 5 -16 17 -5 50 17 50 23 0 35 20 18 31 -27 16 3 31
79 38 6 0 12 11 13 24 1 43 18 -14 18 -64z m-42 65 c-3 -3 -12 -4 -19 -1 -8 3
-5 6 6 6 11 1 17 -2 13 -5z m-163 -239 c-4 -8 -1 -15 7 -15 7 0 10 -2 7 -5 -3
-3 -13 -3 -22 1 -13 5 -14 9 -5 20 15 18 20 18 13 -1z"/>
<path d="M3570 2319 c0 -5 5 -7 10 -4 6 3 10 8 10 11 0 2 -4 4 -10 4 -5 0 -10
-5 -10 -11z"/>
<path d="M3277 2099 c7 -7 15 -10 18 -7 3 3 -2 9 -12 12 -14 6 -15 5 -6 -5z"/>
<path d="M2375 5120 c-4 -6 6 -10 24 -10 16 0 33 5 36 10 4 6 -6 10 -24 10
-16 0 -33 -4 -36 -10z"/>
<path d="M2324 5065 c3 -20 36 -35 36 -16 0 6 -8 8 -17 5 -17 -5 -17 -5 0 6
23 15 22 29 -3 27 -13 -1 -18 -7 -16 -22z"/>
<path d="M2460 5080 c-8 -5 -29 -14 -47 -21 -17 -7 -29 -17 -27 -21 3 -4 -12
-8 -33 -8 -28 0 -34 -3 -23 -10 13 -8 11 -11 -7 -16 -26 -7 -31 -34 -7 -34 8
0 13 4 10 9 -3 5 8 12 24 15 17 3 44 9 60 12 28 6 29 7 13 19 -17 13 -17 14 0
21 10 3 43 4 73 0 34 -4 54 -2 54 4 0 5 -16 10 -36 10 -31 0 -35 2 -24 15 10
12 10 15 -1 14 -8 0 -21 -4 -29 -9z"/>
<path d="M2365 5070 c-3 -5 -1 -10 4 -10 6 0 11 5 11 10 0 6 -2 10 -4 10 -3 0
-8 -4 -11 -10z"/>
<path d="M2377 4729 c8 -8 16 -8 30 0 16 9 14 10 -11 11 -22 0 -27 -3 -19 -11z"/>
<path d="M2334 4663 c-3 -12 -17 -26 -30 -32 -13 -6 -24 -15 -24 -21 0 -10 9
-7 83 25 21 9 47 13 58 10 10 -4 19 -2 19 3 0 6 -15 12 -32 14 -18 3 -41 8
-51 13 -14 6 -20 3 -23 -12z"/>
<path d="M1992 4163 c-17 -7 -44 -61 -36 -74 3 -6 34 -9 72 -7 61 3 67 1 70
-18 3 -21 -31 -44 -66 -44 -19 0 -42 -18 -42 -33 0 -4 6 -5 13 0 6 4 4 -4 -5
-19 -18 -27 -15 -40 6 -32 7 3 19 -2 26 -11 8 -10 29 -15 61 -15 38 0 51 -4
59 -20 18 -33 56 -36 95 -6 34 26 65 82 65 115 0 9 -26 31 -57 50 -31 19 -52
36 -45 39 16 5 15 37 -1 50 -7 6 -51 16 -97 21 -91 12 -98 12 -118 4z m98
-187 c0 -7 7 -19 15 -26 26 -22 16 -31 -27 -28 -33 2 -44 7 -47 22 -3 20 22
46 46 46 7 0 13 -6 13 -14z m30 5 c0 -6 -4 -13 -10 -16 -5 -3 -10 1 -10 9 0 9
5 16 10 16 6 0 10 -4 10 -9z"/>
<path d="M2266 3693 c-3 -3 -3 -10 0 -14 7 -12 34 -11 34 0 0 11 -26 22 -34
14z"/>
<path d="M2410 2915 c0 -8 7 -15 15 -15 8 0 15 7 15 15 0 8 -7 15 -15 15 -8 0
-15 -7 -15 -15z"/>
<path d="M1650 2833 c0 -10 4 -14 8 -8 4 6 11 13 16 18 5 4 2 7 -7 7 -10 0
-17 -8 -17 -17z"/>
<path d="M1601 2776 c-29 -56 -18 -81 14 -34 27 39 35 69 20 74 -6 2 -21 -16
-34 -40z"/>
<path d="M1660 2731 c0 -6 5 -13 10 -16 6 -3 10 1 10 9 0 9 -4 16 -10 16 -5 0
-10 -4 -10 -9z"/>
<path d="M1602 2638 c-14 -14 -16 -44 -3 -52 7 -5 31 42 31 60 0 8 -17 3 -28
-8z"/>
<path d="M1255 2570 c-3 -5 -1 -10 4 -10 6 0 11 5 11 10 0 6 -2 10 -4 10 -3 0
-8 -4 -11 -10z"/>
</g>
</svg>
